<?xml version="1.0" standalone="no"?><!DOCTYPE svg PUBLIC "-//W3C//DTD SVG 1.1//EN" "http://www.w3.org/Graphics/SVG/1.1/DTD/svg11.dtd"><svg t="1574605537635" class="icon" viewBox="0 0 1024 1024" version="1.1" xmlns="http://www.w3.org/2000/svg" p-id="1160" width="20" height="20" xmlns:xlink="http://www.w3.org/1999/xlink"><defs><style type="text/css"></style></defs><path d="M950.953478 438.953478C950.953478 196.534032 754.419446 0 512 0S73.046522 196.534032 73.046522 438.953478a437.484905 437.484905 0 0 0 125.652906 307.201498h-0.179825l1.783267 1.783268c0.884141 0.884141 1.753296 1.798253 2.667408 2.682393l248.203825 248.18884a85.971463 85.971463 0 0 0 121.591852 0L820.954795 750.620637c0.869155-0.884141 1.783267-1.768282 2.667408-2.682393l1.783267-1.783268h-0.16484a437.290094 437.290094 0 0 0 125.712848-307.201498zM572.795926 895.46989c-60.720999 60.720999-60.75097 60.870853-121.591852 0L253.486193 696.703028c-66.025844-66.100771-107.280757-156.897546-107.280758-257.74955 0-202.018703 163.760877-365.794565 365.794565-365.794565s365.794565 163.760877 365.794565 365.794565c0 100.852004-41.254913 191.648779-107.295743 257.74955z m-60.691028-675.993151a219.476739 219.476739 0 1 0 219.476739 219.476739 219.476739 219.476739 0 0 0-219.476739-219.476739z m0 365.794565a146.317826 146.317826 0 1 1 146.317826-146.317826 146.332811 146.332811 0 0 1-146.317826 146.317826z m0 0" p-id="1161" fill="#ffffff"></path></svg>