<?xml version="1.0" standalone="no"?><!DOCTYPE svg PUBLIC "-//W3C//DTD SVG 1.1//EN" "http://www.w3.org/Graphics/SVG/1.1/DTD/svg11.dtd"><svg t="1574532109891" class="icon" viewBox="0 0 1024 1024" version="1.1" xmlns="http://www.w3.org/2000/svg" p-id="27512" xmlns:xlink="http://www.w3.org/1999/xlink" width="30" height="30"><defs><style type="text/css"></style></defs><path d="M770.8 964.1c-10.1 0-19.5-2-28.7-6-9.3-4.1-16.9-9.2-23.9-16.2S706.1 927.3 702 918c-4-9.3-6-18.7-6-28.7s2-19.5 6-28.7c4.1-9.3 9.2-16.9 16.2-23.9 7.1-7.1 14.5-12 23.2-15.4 9.8-3.8 19.7-5.8 29.4-5.8 9.9 0 20.3 2 29.9 5.8 9.2 3.6 17 8.6 23.7 15.4 7 7 12.1 14.6 16.2 23.9 4 9.3 6 18.7 6 28.7 0 10.1-2 19.5-6 28.7-4.1 9.3-9.2 16.9-16.2 23.9-6.6 6.6-14.6 11.9-24.4 16.2-9 4-19.1 6-29.2 6z m-424.3-2c-10.9 0-20.4-1.9-29.8-6-9.3-4.1-16.9-9.2-23.9-16.2s-12.1-14.6-16.2-23.9c-4-9.3-6-18.7-6-28.7 0-10.1 2-19.5 6-28.7 4.1-9.3 9.2-16.9 16.2-23.9 7.1-7.1 14.5-12 23.2-15.4 10-3.9 19.7-5.8 30.4-5.8 9.8 0 19.7 1.9 29.4 5.8 8.8 3.4 16.2 8.3 23.2 15.4 7 7 12.1 14.6 16.2 23.9 4 9.3 6 18.7 6 28.7 0 10.1-2 19.5-6 28.7-4.1 9.3-9.2 16.9-16.2 23.9s-14.6 12.1-23.9 16.2c-9.1 4-18.6 6-28.6 6zM849 745.9H311.8c-9.7 0-17.2-1.9-23.1-5.8-6.6-4.4-12.4-10.5-17.1-18-5.5-8.6-9.7-17.8-12.6-27.3-3-10-6.1-20.5-8.1-30.1-0.5-3.5-1.6-8.9-3.2-17.3-0.7-3.7-1.6-7.9-2.5-12.7-1.2-6.3-2.5-13.2-3.9-20.7-2.1-11.2-4.5-23.9-7.3-38-2.3-11.9-4.7-24.5-7.1-37.8-2.4-13-4.9-26.4-7.6-40.7-2.8-14.5-5.5-29.2-8.1-43.5-2.6-14.3-5.4-29.1-8.2-43.7-12.7-68.6-27.4-144.6-43.9-229.6l-3.1-16.2H63c-4 0-9.5-0.6-13.3-3.5-4.8-3.7-8.8-8.1-12.2-13.3-3.2-5-5.3-10.2-6.3-15.8-1.5-7.9-2.2-14.1-2.2-18.8 0-8.2 2.4-14.3 7.5-19.1 3.1-2.9 8.6-6.8 20.9-6.8H163c10.4 0 18.4 1.3 23.7 4 5.5 2.8 9.8 6 12.3 9.4 3.7 4.9 5.9 8.9 7.1 12.8 0.8 2.6 1.5 5.1 2.2 7.4 1 3.3 1.9 6.4 2.8 9.3 0.9 3.5 1.7 8.8 2.7 14.9 0.3 1.7 0.5 3.5 0.8 5.4 0.8 4.8 1.4 9.8 2.1 15.1 0.6 4.8 1.2 9.8 2 14.8l0.1 0.3c2.3 13.6 4.3 26.2 6.1 38.4v-0.1c1.3 8.9 8.7 17.2 20.3 17.2h697.1c19.7 0 30.3 3.1 35.8 5.7 9.1 4.3 12.3 8.4 13.9 11.1 2.6 4.4 3.6 8 3.3 12.5-0.4 7.5-1.3 12.8-2.6 16.8-1.2 3.6-3.4 9.8-6.4 18.4-1.9 5.4-4.2 11.8-6.7 19-1.9 5.4-3.9 11-5.9 16.7-5.2 14.6-10.6 29.8-16.1 46.3-4.3 13-8.9 26.2-13.4 38.9-3.3 9.4-6.7 19.2-10 28.8-5.9 17.2-11.1 31.6-15.3 43.3-1.2 3.4-2.4 6.6-3.4 9.4l-0.1 0.3-0.1 0.3c-9.2 28.6-19.6 41.4-26.7 47.2-9.5 7.6-21.5 11.4-36.9 11.4H292.5L313 694.1h532.2c11.2 0 19.4 1.9 23.8 5.6 1.3 1.1 5.2 4.4 5.2 16.2 0 10.1-2.1 18-6.5 24.8-2.9 4.5-13 5.2-18.7 5.2zM285.1 509.5l563.7 1.1L933.3 287l-691.6-2.2 43.4 224.7z" fill="#ffffff" p-id="27513"></path></svg>