<?xml version="1.0" standalone="no"?><!DOCTYPE svg PUBLIC "-//W3C//DTD SVG 1.1//EN" "http://www.w3.org/Graphics/SVG/1.1/DTD/svg11.dtd"><svg t="1574579030218" class="icon" viewBox="0 0 1024 1024" version="1.1" xmlns="http://www.w3.org/2000/svg" p-id="4470" width="25" height="25" xmlns:xlink="http://www.w3.org/1999/xlink"><defs><style type="text/css"></style></defs><path d="M898.030924 848.11562A512.284603 512.284603 0 0 0 518.371113 2.27682a47.81323 47.81323 0 0 0-14.230128 0A512.284603 512.284603 0 0 0 0.394459 505.454141a47.244024 47.244024 0 0 0 0 9.107282 512.284603 512.284603 0 0 0 873.72985 356.891606l20.491384-21.629794zM48.207689 534.483602h214.590328a978.463591 978.463591 0 0 0 26.183435 207.759867 472.440245 472.440245 0 0 0-138.886048 56.920511A462.194553 462.194553 0 0 1 48.207689 531.068371zM149.526199 221.989994a467.317399 467.317399 0 0 0 138.886048 60.335743 978.463591 978.463591 0 0 0-25.61423 205.483046H48.207689A462.194553 462.194553 0 0 1 149.526199 221.989994z m827.055031 265.818789h-215.159534a978.463591 978.463591 0 0 0-25.61423-205.483046 473.00945 473.00945 0 0 0 139.455253-56.920512 462.194553 462.194553 0 0 1 100.749305 265.249583z m-261.834353 0H534.878061V309.078377a891.944414 891.944414 0 0 0 154.823791-15.937743 930.650361 930.650361 0 0 1 24.47582 195.237354z m-179.299611-227.682046V50.659255a214.590328 214.590328 0 0 1 113.841023 126.363535 576.60478 576.60478 0 0 1 26.75264 70.581435 849.25403 849.25403 0 0 1-142.870483 14.799333zM488.772447 49.520845v210.605892a837.869928 837.869928 0 0 1-141.732073-13.091718 576.035575 576.035575 0 0 1 26.75264-70.581434 216.297943 216.297943 0 0 1 113.841023-125.79433z m0 257.849917v180.438021H310.042041a931.219566 931.219566 0 0 1 24.47582-195.237354 887.959978 887.959978 0 0 0 153.685381 15.937743z m-178.161201 227.682045h177.591996v182.145637a889.098388 889.098388 0 0 0-153.685381 15.937743 931.219566 931.219566 0 0 1-24.47582-198.08338z m178.161201 227.682046v209.467482a216.297943 216.297943 0 0 1-113.841023-125.794331 575.46637 575.46637 0 0 1-26.75264-69.443023 845.838799 845.838799 0 0 1 140.593663-14.799333z m46.674819 210.036687v-209.467482a841.285158 841.285158 0 0 1 142.301279 14.230128 576.035575 576.035575 0 0 1-26.752641 69.443024 214.590328 214.590328 0 0 1-113.841022 126.363535z m0-257.280712v-182.145636h179.299611a931.219566 931.219566 0 0 1-24.47582 197.514174 890.806003 890.806003 0 0 0-154.823791-15.937743z m227.682046-182.145636h215.159533a462.194553 462.194553 0 0 1-101.887715 268.095608 470.732629 470.732629 0 0 0-138.886048-56.920511 979.032796 979.032796 0 0 0 25.61423-208.329072z m82.534741-347.784325a439.995553 439.995553 0 0 1-120.102279 50.09005 468.455809 468.455809 0 0 0-89.365203-170.761534 465.040578 465.040578 0 0 1 209.467482 122.948305z m-455.364091-122.948304a467.886604 467.886604 0 0 0-89.365203 170.761534 443.410784 443.410784 0 0 1-120.102279-50.09005 465.040578 465.040578 0 0 1 209.467482-119.533074zM181.401685 838.439133a439.426348 439.426348 0 0 1 119.533074-49.520845 467.317399 467.317399 0 0 0 89.365203 170.761534 465.040578 465.040578 0 0 1-208.898277-122.379099z m455.364092 122.379099a467.317399 467.317399 0 0 0 89.365202-170.761534 446.826014 446.826014 0 0 1 120.102279 49.520845 465.040578 465.040578 0 0 1-208.898276 122.3791z m0 0" p-id="4471" fill="#ffffff"></path></svg>