<?xml version="1.0" standalone="no"?><!DOCTYPE svg PUBLIC "-//W3C//DTD SVG 1.1//EN" "http://www.w3.org/Graphics/SVG/1.1/DTD/svg11.dtd"><svg t="1574513731044" class="icon" viewBox="0 0 2000 1024" version="1.1" xmlns="http://www.w3.org/2000/svg" p-id="2095" xmlns:xlink="http://www.w3.org/1999/xlink" width="250" height="128"><defs><style type="text/css"></style></defs><path d="M1246.7 329.5h-109.2v-62h203.7v56.1l-103.3 150.5s41.3 3 59 8.9c23.6 5.9 53.1 20.7 53.1 20.7v62s-70.8-23.6-109.2-23.6c-47.2 0-109.2 23.6-109.2 23.6v-67.9l115.1-168.3zM381.9 524.4l-29.5-29.5V326.6c0-35.4-62-67.9-109.2-67.9-67.9 0-121 44.3-124 100.4H190c5.9-23.6 23.6-38.4 47.2-38.4s41.3 14.8 41.3 38.4v26.6h-59c-14.8 0-29.5 3-41.3 8.9-53.1 23.6-76.7 79.7-56.1 126.9 20.7 47.2 79.7 67.9 132.8 44.3 14.8-5.9 26.6-14.8 35.4-26.6l38.4 38.4 53.2-53.2z m-177.2-14.8c-17.7-17.7-11.8-47.2 8.9-67.9 5.9-5.9 14.8-11.8 20.7-11.8h44.3v64.9l-5.9 5.9c-20.7 20.7-50.2 23.7-68 8.9z m897.4 14.8l-29.5-29.5V326.6c0-35.4-62-67.9-109.2-67.9-67.9 0-121 44.3-124 100.4h70.8c5.9-23.6 23.6-38.4 47.2-38.4s41.3 14.8 41.3 38.4v26.6h-62c-14.8 0-29.5 3-41.3 8.9-53.1 23.6-76.7 79.7-56.1 126.9 20.7 47.2 79.7 67.9 132.8 44.3 14.8-5.9 26.6-14.8 35.4-26.6l38.4 38.4 56.2-53.2z m-174.2-14.8c-17.7-17.7-11.8-47.2 8.9-67.9 5.9-5.9 14.8-11.8 20.7-11.8h44.3v64.9l-3 3c-23.6 23.6-53.1 26.6-70.9 11.8z m0 0" fill="#221E1F" p-id="2096"></path><path d="M706.6 258.7c-32.5 0-59 20.7-70.8 56.1-14.8-35.4-41.3-56.1-73.8-56.1s-59 26.6-70.8 62v-53.1h-73.8v309.9h73.8V376.8c0-26.6 20.7-44.3 44.3-44.3 11.8 0 32.5 20.7 32.5 32.5v209.6h73.8V367.9c3-17.7 23.6-35.4 41.3-32.5 14.8 0 32.5 20.7 32.5 35.4v206.6h73.8V341.3c-12-47.2-32.7-82.6-82.8-82.6z m0 0" fill="#221E1F" p-id="2097"></path><path d="M783.3 344.3v11.8c3-2.9 3-8.9 0-11.8z m0 0" fill="#221E1F" p-id="2098"></path><path d="M1810.5 258.7c-32.5 0-59 26.6-70.8 62v-53.1h-73.8v309.9h73.8V376.8c0-26.6 20.7-44.3 44.3-44.3 11.8 0 32.5 20.7 32.5 32.5v209.6h67.9v-245c-0.1-41.4-41.4-70.9-73.9-70.9z m-309.9 0c-70.8 0-126.9 70.8-126.9 162.4 0 88.6 56.1 162.4 126.9 162.4 70.8 0 126.9-70.8 126.9-162.4-2.9-88.6-59-162.4-126.9-162.4z m38.4 218.4c0 20.7-17.7 38.4-38.4 38.4h-3c-20.7 0-38.4-17.7-38.4-38.4V362c0-20.7 17.7-38.4 38.4-38.4h3c20.7 0 38.4 17.7 38.4 38.4v115.1z m0 0" fill="#221E1F" p-id="2099"></path><path d="M381.9 604.1s194.8 124 454.6 126.9c259.8 3 354.2-73.8 377.8-79.7 23.6-5.9 17.7 20.7 0 35.4-17.7 14.8-239.1 129.9-413.3 112.2-174.2-17.7-336.5-88.6-422.1-174.2-26.6-29.5 3-20.6 3-20.6z m0 0" fill="#F59328" p-id="2100"></path><path d="M1143.4 627.7s106.3-20.7 115.1 0c8.9 20.7-20.7 97.4-32.5 118.1-8.9 14.8 11.8 17.7 20.7 8.9 8.9-11.8 59-73.8 53.1-141.7 0-23.6-17.7-29.5-50.2-29.5-20.7 0-91.5 14.8-118.1 29.5-2.8 2.9-5.8 17.6 11.9 14.7z m0 0" fill="#F59328" p-id="2101"></path></svg>